<mxfile host="app.diagrams.net" modified="2022-10-03T02:10:48.539Z" agent="5.0 (Windows NT 10.0; Win64; x64) AppleWebKit/537.36 (KHTML, like Gecko) Chrome/106.0.0.0 Safari/537.36" etag="vW0qDDYRZ7VwbV7TdQMg" version="20.4.0" type="github">
  <diagram id="VJKEPPOCmXcrDl67Iami" name="Page-1">
    <mxGraphModel dx="782" dy="460" grid="0" gridSize="10" guides="1" tooltips="1" connect="1" arrows="1" fold="1" page="1" pageScale="1" pageWidth="850" pageHeight="1100" background="#283618" math="0" shadow="0">
      <root>
        <mxCell id="0" />
        <mxCell id="1" parent="0" />
        <mxCell id="gt4YSWyI9dQDsBK6k9Cd-1" value="Baju" style="shape=table;startSize=30;container=1;collapsible=1;childLayout=tableLayout;fixedRows=1;rowLines=0;fontStyle=1;align=center;resizeLast=1;fillColor=#BC6C25;strokeColor=#DDA15E;fontColor=#FEFAE0;" vertex="1" parent="1">
          <mxGeometry x="40" y="120" width="180" height="160" as="geometry" />
        </mxCell>
        <mxCell id="gt4YSWyI9dQDsBK6k9Cd-2" value="" style="shape=tableRow;horizontal=0;startSize=0;swimlaneHead=0;swimlaneBody=0;fillColor=none;collapsible=0;dropTarget=0;points=[[0,0.5],[1,0.5]];portConstraint=eastwest;top=0;left=0;right=0;bottom=1;strokeColor=#DDA15E;fontColor=#FEFAE0;" vertex="1" parent="gt4YSWyI9dQDsBK6k9Cd-1">
          <mxGeometry y="30" width="180" height="30" as="geometry" />
        </mxCell>
        <mxCell id="gt4YSWyI9dQDsBK6k9Cd-3" value="PK" style="shape=partialRectangle;connectable=0;fillColor=none;top=0;left=0;bottom=0;right=0;fontStyle=1;overflow=hidden;strokeColor=#DDA15E;fontColor=#FEFAE0;" vertex="1" parent="gt4YSWyI9dQDsBK6k9Cd-2">
          <mxGeometry width="30" height="30" as="geometry">
            <mxRectangle width="30" height="30" as="alternateBounds" />
          </mxGeometry>
        </mxCell>
        <mxCell id="gt4YSWyI9dQDsBK6k9Cd-4" value="id_baju" style="shape=partialRectangle;connectable=0;fillColor=none;top=0;left=0;bottom=0;right=0;align=left;spacingLeft=6;fontStyle=5;overflow=hidden;strokeColor=#DDA15E;fontColor=#FEFAE0;" vertex="1" parent="gt4YSWyI9dQDsBK6k9Cd-2">
          <mxGeometry x="30" width="150" height="30" as="geometry">
            <mxRectangle width="150" height="30" as="alternateBounds" />
          </mxGeometry>
        </mxCell>
        <mxCell id="gt4YSWyI9dQDsBK6k9Cd-5" value="" style="shape=tableRow;horizontal=0;startSize=0;swimlaneHead=0;swimlaneBody=0;fillColor=none;collapsible=0;dropTarget=0;points=[[0,0.5],[1,0.5]];portConstraint=eastwest;top=0;left=0;right=0;bottom=0;strokeColor=#DDA15E;fontColor=#FEFAE0;" vertex="1" parent="gt4YSWyI9dQDsBK6k9Cd-1">
          <mxGeometry y="60" width="180" height="30" as="geometry" />
        </mxCell>
        <mxCell id="gt4YSWyI9dQDsBK6k9Cd-6" value="" style="shape=partialRectangle;connectable=0;fillColor=none;top=0;left=0;bottom=0;right=0;editable=1;overflow=hidden;strokeColor=#DDA15E;fontColor=#FEFAE0;" vertex="1" parent="gt4YSWyI9dQDsBK6k9Cd-5">
          <mxGeometry width="30" height="30" as="geometry">
            <mxRectangle width="30" height="30" as="alternateBounds" />
          </mxGeometry>
        </mxCell>
        <mxCell id="gt4YSWyI9dQDsBK6k9Cd-7" value="jenis_baju" style="shape=partialRectangle;connectable=0;fillColor=none;top=0;left=0;bottom=0;right=0;align=left;spacingLeft=6;overflow=hidden;strokeColor=#DDA15E;fontColor=#FEFAE0;" vertex="1" parent="gt4YSWyI9dQDsBK6k9Cd-5">
          <mxGeometry x="30" width="150" height="30" as="geometry">
            <mxRectangle width="150" height="30" as="alternateBounds" />
          </mxGeometry>
        </mxCell>
        <mxCell id="gt4YSWyI9dQDsBK6k9Cd-8" value="" style="shape=tableRow;horizontal=0;startSize=0;swimlaneHead=0;swimlaneBody=0;fillColor=none;collapsible=0;dropTarget=0;points=[[0,0.5],[1,0.5]];portConstraint=eastwest;top=0;left=0;right=0;bottom=0;strokeColor=#DDA15E;fontColor=#FEFAE0;" vertex="1" parent="gt4YSWyI9dQDsBK6k9Cd-1">
          <mxGeometry y="90" width="180" height="30" as="geometry" />
        </mxCell>
        <mxCell id="gt4YSWyI9dQDsBK6k9Cd-9" value="" style="shape=partialRectangle;connectable=0;fillColor=none;top=0;left=0;bottom=0;right=0;editable=1;overflow=hidden;strokeColor=#DDA15E;fontColor=#FEFAE0;" vertex="1" parent="gt4YSWyI9dQDsBK6k9Cd-8">
          <mxGeometry width="30" height="30" as="geometry">
            <mxRectangle width="30" height="30" as="alternateBounds" />
          </mxGeometry>
        </mxCell>
        <mxCell id="gt4YSWyI9dQDsBK6k9Cd-10" value="ukuran_baju" style="shape=partialRectangle;connectable=0;fillColor=none;top=0;left=0;bottom=0;right=0;align=left;spacingLeft=6;overflow=hidden;strokeColor=#DDA15E;fontColor=#FEFAE0;" vertex="1" parent="gt4YSWyI9dQDsBK6k9Cd-8">
          <mxGeometry x="30" width="150" height="30" as="geometry">
            <mxRectangle width="150" height="30" as="alternateBounds" />
          </mxGeometry>
        </mxCell>
        <mxCell id="gt4YSWyI9dQDsBK6k9Cd-11" value="" style="shape=tableRow;horizontal=0;startSize=0;swimlaneHead=0;swimlaneBody=0;fillColor=none;collapsible=0;dropTarget=0;points=[[0,0.5],[1,0.5]];portConstraint=eastwest;top=0;left=0;right=0;bottom=0;strokeColor=#DDA15E;fontColor=#FEFAE0;" vertex="1" parent="gt4YSWyI9dQDsBK6k9Cd-1">
          <mxGeometry y="120" width="180" height="30" as="geometry" />
        </mxCell>
        <mxCell id="gt4YSWyI9dQDsBK6k9Cd-12" value="" style="shape=partialRectangle;connectable=0;fillColor=none;top=0;left=0;bottom=0;right=0;editable=1;overflow=hidden;strokeColor=#DDA15E;fontColor=#FEFAE0;" vertex="1" parent="gt4YSWyI9dQDsBK6k9Cd-11">
          <mxGeometry width="30" height="30" as="geometry">
            <mxRectangle width="30" height="30" as="alternateBounds" />
          </mxGeometry>
        </mxCell>
        <mxCell id="gt4YSWyI9dQDsBK6k9Cd-13" value="bahan_baju" style="shape=partialRectangle;connectable=0;fillColor=none;top=0;left=0;bottom=0;right=0;align=left;spacingLeft=6;overflow=hidden;strokeColor=#DDA15E;fontColor=#FEFAE0;" vertex="1" parent="gt4YSWyI9dQDsBK6k9Cd-11">
          <mxGeometry x="30" width="150" height="30" as="geometry">
            <mxRectangle width="150" height="30" as="alternateBounds" />
          </mxGeometry>
        </mxCell>
        <mxCell id="gt4YSWyI9dQDsBK6k9Cd-14" value="toko" style="shape=table;startSize=30;container=1;collapsible=1;childLayout=tableLayout;fixedRows=1;rowLines=0;fontStyle=1;align=center;resizeLast=1;fillColor=#BC6C25;strokeColor=#DDA15E;fontColor=#FEFAE0;" vertex="1" parent="1">
          <mxGeometry x="240" y="120" width="180" height="160" as="geometry" />
        </mxCell>
        <mxCell id="gt4YSWyI9dQDsBK6k9Cd-15" value="" style="shape=tableRow;horizontal=0;startSize=0;swimlaneHead=0;swimlaneBody=0;fillColor=none;collapsible=0;dropTarget=0;points=[[0,0.5],[1,0.5]];portConstraint=eastwest;top=0;left=0;right=0;bottom=1;strokeColor=#DDA15E;fontColor=#FEFAE0;" vertex="1" parent="gt4YSWyI9dQDsBK6k9Cd-14">
          <mxGeometry y="30" width="180" height="30" as="geometry" />
        </mxCell>
        <mxCell id="gt4YSWyI9dQDsBK6k9Cd-16" value="PK" style="shape=partialRectangle;connectable=0;fillColor=none;top=0;left=0;bottom=0;right=0;fontStyle=1;overflow=hidden;strokeColor=#DDA15E;fontColor=#FEFAE0;" vertex="1" parent="gt4YSWyI9dQDsBK6k9Cd-15">
          <mxGeometry width="30" height="30" as="geometry">
            <mxRectangle width="30" height="30" as="alternateBounds" />
          </mxGeometry>
        </mxCell>
        <mxCell id="gt4YSWyI9dQDsBK6k9Cd-17" value="kode_toko" style="shape=partialRectangle;connectable=0;fillColor=none;top=0;left=0;bottom=0;right=0;align=left;spacingLeft=6;fontStyle=5;overflow=hidden;strokeColor=#DDA15E;fontColor=#FEFAE0;" vertex="1" parent="gt4YSWyI9dQDsBK6k9Cd-15">
          <mxGeometry x="30" width="150" height="30" as="geometry">
            <mxRectangle width="150" height="30" as="alternateBounds" />
          </mxGeometry>
        </mxCell>
        <mxCell id="gt4YSWyI9dQDsBK6k9Cd-18" value="" style="shape=tableRow;horizontal=0;startSize=0;swimlaneHead=0;swimlaneBody=0;fillColor=none;collapsible=0;dropTarget=0;points=[[0,0.5],[1,0.5]];portConstraint=eastwest;top=0;left=0;right=0;bottom=0;strokeColor=#DDA15E;fontColor=#FEFAE0;" vertex="1" parent="gt4YSWyI9dQDsBK6k9Cd-14">
          <mxGeometry y="60" width="180" height="30" as="geometry" />
        </mxCell>
        <mxCell id="gt4YSWyI9dQDsBK6k9Cd-19" value="" style="shape=partialRectangle;connectable=0;fillColor=none;top=0;left=0;bottom=0;right=0;editable=1;overflow=hidden;strokeColor=#DDA15E;fontColor=#FEFAE0;" vertex="1" parent="gt4YSWyI9dQDsBK6k9Cd-18">
          <mxGeometry width="30" height="30" as="geometry">
            <mxRectangle width="30" height="30" as="alternateBounds" />
          </mxGeometry>
        </mxCell>
        <mxCell id="gt4YSWyI9dQDsBK6k9Cd-20" value="alamat_toko" style="shape=partialRectangle;connectable=0;fillColor=none;top=0;left=0;bottom=0;right=0;align=left;spacingLeft=6;overflow=hidden;strokeColor=#DDA15E;fontColor=#FEFAE0;" vertex="1" parent="gt4YSWyI9dQDsBK6k9Cd-18">
          <mxGeometry x="30" width="150" height="30" as="geometry">
            <mxRectangle width="150" height="30" as="alternateBounds" />
          </mxGeometry>
        </mxCell>
        <mxCell id="gt4YSWyI9dQDsBK6k9Cd-21" value="" style="shape=tableRow;horizontal=0;startSize=0;swimlaneHead=0;swimlaneBody=0;fillColor=none;collapsible=0;dropTarget=0;points=[[0,0.5],[1,0.5]];portConstraint=eastwest;top=0;left=0;right=0;bottom=0;strokeColor=#DDA15E;fontColor=#FEFAE0;" vertex="1" parent="gt4YSWyI9dQDsBK6k9Cd-14">
          <mxGeometry y="90" width="180" height="30" as="geometry" />
        </mxCell>
        <mxCell id="gt4YSWyI9dQDsBK6k9Cd-22" value="" style="shape=partialRectangle;connectable=0;fillColor=none;top=0;left=0;bottom=0;right=0;editable=1;overflow=hidden;strokeColor=#DDA15E;fontColor=#FEFAE0;" vertex="1" parent="gt4YSWyI9dQDsBK6k9Cd-21">
          <mxGeometry width="30" height="30" as="geometry">
            <mxRectangle width="30" height="30" as="alternateBounds" />
          </mxGeometry>
        </mxCell>
        <mxCell id="gt4YSWyI9dQDsBK6k9Cd-23" value="telepon_toko" style="shape=partialRectangle;connectable=0;fillColor=none;top=0;left=0;bottom=0;right=0;align=left;spacingLeft=6;overflow=hidden;strokeColor=#DDA15E;fontColor=#FEFAE0;" vertex="1" parent="gt4YSWyI9dQDsBK6k9Cd-21">
          <mxGeometry x="30" width="150" height="30" as="geometry">
            <mxRectangle width="150" height="30" as="alternateBounds" />
          </mxGeometry>
        </mxCell>
        <mxCell id="gt4YSWyI9dQDsBK6k9Cd-24" value="" style="shape=tableRow;horizontal=0;startSize=0;swimlaneHead=0;swimlaneBody=0;fillColor=none;collapsible=0;dropTarget=0;points=[[0,0.5],[1,0.5]];portConstraint=eastwest;top=0;left=0;right=0;bottom=0;strokeColor=#DDA15E;fontColor=#FEFAE0;" vertex="1" parent="gt4YSWyI9dQDsBK6k9Cd-14">
          <mxGeometry y="120" width="180" height="30" as="geometry" />
        </mxCell>
        <mxCell id="gt4YSWyI9dQDsBK6k9Cd-25" value="" style="shape=partialRectangle;connectable=0;fillColor=none;top=0;left=0;bottom=0;right=0;editable=1;overflow=hidden;strokeColor=#DDA15E;fontColor=#FEFAE0;" vertex="1" parent="gt4YSWyI9dQDsBK6k9Cd-24">
          <mxGeometry width="30" height="30" as="geometry">
            <mxRectangle width="30" height="30" as="alternateBounds" />
          </mxGeometry>
        </mxCell>
        <mxCell id="gt4YSWyI9dQDsBK6k9Cd-26" value="jam_operasional_toko" style="shape=partialRectangle;connectable=0;fillColor=none;top=0;left=0;bottom=0;right=0;align=left;spacingLeft=6;overflow=hidden;strokeColor=#DDA15E;fontColor=#FEFAE0;" vertex="1" parent="gt4YSWyI9dQDsBK6k9Cd-24">
          <mxGeometry x="30" width="150" height="30" as="geometry">
            <mxRectangle width="150" height="30" as="alternateBounds" />
          </mxGeometry>
        </mxCell>
        <mxCell id="gt4YSWyI9dQDsBK6k9Cd-27" value="karyawan" style="shape=table;startSize=30;container=1;collapsible=1;childLayout=tableLayout;fixedRows=1;rowLines=0;fontStyle=1;align=center;resizeLast=1;fillColor=#BC6C25;strokeColor=#DDA15E;fontColor=#FEFAE0;" vertex="1" parent="1">
          <mxGeometry x="440" y="120" width="180" height="160" as="geometry" />
        </mxCell>
        <mxCell id="gt4YSWyI9dQDsBK6k9Cd-28" value="" style="shape=tableRow;horizontal=0;startSize=0;swimlaneHead=0;swimlaneBody=0;fillColor=none;collapsible=0;dropTarget=0;points=[[0,0.5],[1,0.5]];portConstraint=eastwest;top=0;left=0;right=0;bottom=1;strokeColor=#DDA15E;fontColor=#FEFAE0;" vertex="1" parent="gt4YSWyI9dQDsBK6k9Cd-27">
          <mxGeometry y="30" width="180" height="30" as="geometry" />
        </mxCell>
        <mxCell id="gt4YSWyI9dQDsBK6k9Cd-29" value="PK" style="shape=partialRectangle;connectable=0;fillColor=none;top=0;left=0;bottom=0;right=0;fontStyle=1;overflow=hidden;strokeColor=#DDA15E;fontColor=#FEFAE0;" vertex="1" parent="gt4YSWyI9dQDsBK6k9Cd-28">
          <mxGeometry width="30" height="30" as="geometry">
            <mxRectangle width="30" height="30" as="alternateBounds" />
          </mxGeometry>
        </mxCell>
        <mxCell id="gt4YSWyI9dQDsBK6k9Cd-30" value="id_karyawan" style="shape=partialRectangle;connectable=0;fillColor=none;top=0;left=0;bottom=0;right=0;align=left;spacingLeft=6;fontStyle=5;overflow=hidden;strokeColor=#DDA15E;fontColor=#FEFAE0;" vertex="1" parent="gt4YSWyI9dQDsBK6k9Cd-28">
          <mxGeometry x="30" width="150" height="30" as="geometry">
            <mxRectangle width="150" height="30" as="alternateBounds" />
          </mxGeometry>
        </mxCell>
        <mxCell id="gt4YSWyI9dQDsBK6k9Cd-31" value="" style="shape=tableRow;horizontal=0;startSize=0;swimlaneHead=0;swimlaneBody=0;fillColor=none;collapsible=0;dropTarget=0;points=[[0,0.5],[1,0.5]];portConstraint=eastwest;top=0;left=0;right=0;bottom=0;strokeColor=#DDA15E;fontColor=#FEFAE0;" vertex="1" parent="gt4YSWyI9dQDsBK6k9Cd-27">
          <mxGeometry y="60" width="180" height="30" as="geometry" />
        </mxCell>
        <mxCell id="gt4YSWyI9dQDsBK6k9Cd-32" value="" style="shape=partialRectangle;connectable=0;fillColor=none;top=0;left=0;bottom=0;right=0;editable=1;overflow=hidden;strokeColor=#DDA15E;fontColor=#FEFAE0;" vertex="1" parent="gt4YSWyI9dQDsBK6k9Cd-31">
          <mxGeometry width="30" height="30" as="geometry">
            <mxRectangle width="30" height="30" as="alternateBounds" />
          </mxGeometry>
        </mxCell>
        <mxCell id="gt4YSWyI9dQDsBK6k9Cd-33" value="nama_karyawan" style="shape=partialRectangle;connectable=0;fillColor=none;top=0;left=0;bottom=0;right=0;align=left;spacingLeft=6;overflow=hidden;strokeColor=#DDA15E;fontColor=#FEFAE0;" vertex="1" parent="gt4YSWyI9dQDsBK6k9Cd-31">
          <mxGeometry x="30" width="150" height="30" as="geometry">
            <mxRectangle width="150" height="30" as="alternateBounds" />
          </mxGeometry>
        </mxCell>
        <mxCell id="gt4YSWyI9dQDsBK6k9Cd-34" value="" style="shape=tableRow;horizontal=0;startSize=0;swimlaneHead=0;swimlaneBody=0;fillColor=none;collapsible=0;dropTarget=0;points=[[0,0.5],[1,0.5]];portConstraint=eastwest;top=0;left=0;right=0;bottom=0;strokeColor=#DDA15E;fontColor=#FEFAE0;" vertex="1" parent="gt4YSWyI9dQDsBK6k9Cd-27">
          <mxGeometry y="90" width="180" height="30" as="geometry" />
        </mxCell>
        <mxCell id="gt4YSWyI9dQDsBK6k9Cd-35" value="" style="shape=partialRectangle;connectable=0;fillColor=none;top=0;left=0;bottom=0;right=0;editable=1;overflow=hidden;strokeColor=#DDA15E;fontColor=#FEFAE0;" vertex="1" parent="gt4YSWyI9dQDsBK6k9Cd-34">
          <mxGeometry width="30" height="30" as="geometry">
            <mxRectangle width="30" height="30" as="alternateBounds" />
          </mxGeometry>
        </mxCell>
        <mxCell id="gt4YSWyI9dQDsBK6k9Cd-36" value="no_hp_karyawan" style="shape=partialRectangle;connectable=0;fillColor=none;top=0;left=0;bottom=0;right=0;align=left;spacingLeft=6;overflow=hidden;strokeColor=#DDA15E;fontColor=#FEFAE0;" vertex="1" parent="gt4YSWyI9dQDsBK6k9Cd-34">
          <mxGeometry x="30" width="150" height="30" as="geometry">
            <mxRectangle width="150" height="30" as="alternateBounds" />
          </mxGeometry>
        </mxCell>
        <mxCell id="gt4YSWyI9dQDsBK6k9Cd-37" value="" style="shape=tableRow;horizontal=0;startSize=0;swimlaneHead=0;swimlaneBody=0;fillColor=none;collapsible=0;dropTarget=0;points=[[0,0.5],[1,0.5]];portConstraint=eastwest;top=0;left=0;right=0;bottom=0;strokeColor=#DDA15E;fontColor=#FEFAE0;" vertex="1" parent="gt4YSWyI9dQDsBK6k9Cd-27">
          <mxGeometry y="120" width="180" height="30" as="geometry" />
        </mxCell>
        <mxCell id="gt4YSWyI9dQDsBK6k9Cd-38" value="" style="shape=partialRectangle;connectable=0;fillColor=none;top=0;left=0;bottom=0;right=0;editable=1;overflow=hidden;strokeColor=#DDA15E;fontColor=#FEFAE0;" vertex="1" parent="gt4YSWyI9dQDsBK6k9Cd-37">
          <mxGeometry width="30" height="30" as="geometry">
            <mxRectangle width="30" height="30" as="alternateBounds" />
          </mxGeometry>
        </mxCell>
        <mxCell id="gt4YSWyI9dQDsBK6k9Cd-39" value="jenis_kelamin_karyawan" style="shape=partialRectangle;connectable=0;fillColor=none;top=0;left=0;bottom=0;right=0;align=left;spacingLeft=6;overflow=hidden;strokeColor=#DDA15E;fontColor=#FEFAE0;" vertex="1" parent="gt4YSWyI9dQDsBK6k9Cd-37">
          <mxGeometry x="30" width="150" height="30" as="geometry">
            <mxRectangle width="150" height="30" as="alternateBounds" />
          </mxGeometry>
        </mxCell>
      </root>
    </mxGraphModel>
  </diagram>
</mxfile>
